# Blender v2.91.2 OBJ File: 'Archer And Mage.blend'
# www.blender.org
mtllib Adso.mtl
o Adso_Box001.001
v 0.472801 -0.551909 0.167079
v -0.629459 -0.551909 0.167079
v -0.629459 0.550351 0.167080
v 0.472801 0.550351 0.167080
v 0.472801 -0.551910 1.338231
v 0.472801 0.550350 1.338231
v -0.629459 0.550350 1.338231
v -0.629459 -0.551910 1.338231
v 0.188025 -0.600602 0.978729
v -0.078143 -0.600602 1.210417
v -0.078143 0.604995 1.210417
v -0.112541 0.998626 -0.195943
v -0.078143 0.815596 -0.061508
v 0.507432 -0.600602 1.485968
v 0.507432 0.604995 1.485968
v -0.078143 0.604995 1.668902
v -0.078143 -0.600602 1.668902
v 0.384117 -0.600602 0.024888
v 0.384117 0.822919 -0.195584
v 0.891577 0.604995 -0.170818
v 0.891577 -0.600601 -0.170818
v -0.078143 0.976788 -0.102622
v -0.078143 0.986453 -0.195922
v -0.344318 -0.600602 0.978729
v -0.043746 0.998626 -0.195943
v -0.663719 -0.600602 1.485968
v -0.663719 0.604995 1.485968
v -0.540404 -0.600602 0.024888
v -1.047863 -0.600601 -0.170818
v -1.047863 0.604995 -0.170818
v -0.540404 0.822919 -0.195584
v 0.937259 -0.496699 -1.545020
v -1.129479 -0.496699 -1.545020
v -1.129479 0.978696 -1.545019
v 0.937259 0.978696 -1.545019
v 0.434621 -0.517209 0.209778
v 0.434621 0.544247 0.209779
v -0.626841 0.544247 0.209779
v -0.626841 -0.517209 0.209778
vt 0.837699 0.520940
vt 0.985740 0.669108
vt 0.837699 0.669108
vt 0.972149 0.748225
vt 0.823980 0.896394
vt 0.823980 0.748225
vt 0.477735 0.922592
vt 0.625748 0.766251
vt 0.625748 0.923149
vt 0.148169 0.773758
vt 0.000000 0.929539
vt 0.000000 0.773758
vt 0.389858 0.756176
vt 0.241845 0.913631
vt 0.241845 0.756733
vt 0.823980 0.748226
vt 0.675812 0.905655
vt 0.675812 0.748226
vt 0.000000 0.610512
vt 0.188072 0.555633
vt 0.170013 0.580597
vt 0.725034 0.260235
vt 0.803748 0.422295
vt 0.725034 0.422295
vt 0.950677 0.260235
vt 0.882463 0.423245
vt 0.882463 0.261326
vt 0.302719 0.141143
vt 0.261410 0.064770
vt 0.484261 0.130229
vt 0.539364 0.390587
vt 0.502323 0.469302
vt 0.477734 0.390587
vt 0.182899 0.582336
vt 0.155922 0.773757
vt 0.857317 0.000000
vt 0.695430 0.227287
vt 0.695430 0.001083
vt 0.570507 0.426366
vt 0.725033 0.520940
vt 0.478291 0.000000
vt 0.489895 0.067639
vt 0.259901 0.563015
vt 0.241844 0.538051
vt 0.429916 0.592930
vt 0.882463 0.260235
vt 0.882463 0.422295
vt 0.458073 0.948592
vt 0.389858 0.785582
vt 0.458073 0.756175
vt 0.270855 0.221915
vt 0.241844 0.144802
vt 0.502323 0.311872
vt 0.570507 0.354807
vt 0.247015 0.564754
vt 0.242201 0.539901
vt 0.675812 0.520939
vt 0.837699 0.748224
vt 0.675812 0.747141
vt 0.725033 0.260235
vt 0.497353 0.191692
vt 0.493935 0.260235
vt 0.000000 0.277817
vt 0.198156 0.555634
vt 0.000000 0.555634
vt 0.857316 0.142685
vt 1.000000 0.000000
vt 1.000000 0.142685
vt 0.675813 0.761623
vt 0.533308 0.523869
vt 0.675813 0.520939
vt 0.000000 0.277817
vt 0.241845 0.067566
vt 0.241845 0.210251
vt 0.695430 0.004070
vt 0.552925 0.241826
vt 0.497352 0.000000
vt 0.241845 0.260235
vt 0.477735 0.470486
vt 0.241845 0.538051
vt 0.985740 0.520940
vt 0.972149 0.896394
vt 0.477735 0.765694
vt 0.148169 0.929539
vt 0.389858 0.913074
vt 0.823980 0.905655
vt 0.030289 0.773757
vt 0.002163 0.772388
vt 0.803749 0.260235
vt 0.950677 0.452653
vt 0.497353 0.134074
vt 0.187714 0.557483
vt 0.857317 0.226200
vt 0.698727 0.452725
vt 0.496834 0.129473
vt 0.427752 0.754806
vt 0.399628 0.756175
vt 0.389858 0.947502
vt 0.496796 0.124843
vt 0.273994 0.756175
vt 0.837699 0.522024
vt 0.698727 0.328449
vt 0.198156 0.277817
vt 0.857316 0.000000
vt 0.477735 0.765694
vt 0.000000 0.000000
vt 0.695430 0.244755
vt 0.477735 0.327801
vn 0.0000 0.0000 -1.0000
vn 0.0000 -0.0000 1.0000
vn 1.0000 0.0000 0.0000
vn 0.0000 1.0000 0.0000
vn -1.0000 0.0000 0.0000
vn 0.0000 -1.0000 -0.0000
vn -0.9773 -0.2091 -0.0346
vn 0.2982 -0.0000 0.9545
vn -0.3598 0.0000 -0.9330
vn -0.1272 0.9544 0.2702
vn -0.2734 -0.1472 -0.9506
vn 0.9742 0.0000 0.2259
vn 0.3893 0.9167 0.0903
vn 0.9773 -0.2091 -0.0346
vn -0.2982 -0.0000 0.9545
vn 0.0175 -0.1530 -0.9881
vn 0.2131 -0.6041 -0.7679
vn -0.9742 -0.0000 0.2259
vn -0.3893 0.9167 0.0903
vn 0.9613 -0.0000 0.2754
vn 0.0000 0.9707 0.2403
vn -0.9613 -0.0000 0.2754
vn 0.0000 -0.9999 -0.0117
vn -0.6566 0.0000 -0.7543
vn -0.0175 -0.1530 -0.9881
vn -0.9296 -0.3151 -0.1911
vn -0.2131 -0.6041 -0.7679
vn 0.3319 0.9383 0.0972
vn 0.3319 0.9383 0.0973
vn 0.6566 0.0000 -0.7543
vn 0.3598 0.0000 -0.9330
vn 0.1272 0.9544 0.2702
vn 0.9296 -0.3151 -0.1911
vn 0.2734 -0.1472 -0.9506
vn -0.3319 0.9383 0.0973
vn -0.3319 0.9383 0.0972
usemtl Material.003
s off
f 2/1/1 4/2/1 1/3/1
f 6/4/2 8/5/2 5/6/2
f 4/7/3 5/8/3 1/9/3
f 3/10/4 6/11/4 4/12/4
f 2/13/5 7/14/5 3/15/5
f 1/16/6 8/17/6 2/18/6
f 11/19/7 12/20/7 13/21/7
f 15/22/8 17/23/8 14/24/8
f 18/25/9 20/26/9 21/27/9
f 11/28/10 15/29/10 22/30/10
f 10/31/6 14/32/6 17/33/6
f 13/21/11 19/34/11 18/35/11
f 14/36/12 20/37/12 15/38/12
f 9/39/6 21/40/6 14/32/6
f 15/29/13 20/41/13 19/42/13
f 13/43/14 25/44/14 11/45/14
f 17/23/15 27/46/15 26/47/15
f 28/48/16 30/49/16 31/50/16
f 27/51/4 16/52/4 11/28/4
f 10/31/6 26/53/6 24/54/6
f 31/55/17 23/56/17 13/43/17
f 30/57/18 26/58/18 27/59/18
f 29/60/6 24/54/6 26/53/6
f 31/61/19 30/62/19 27/51/19
f 33/63/1 35/64/1 32/65/1
f 37/66/2 39/67/2 36/68/2
f 32/69/20 37/70/20 36/71/20
f 35/72/21 38/73/21 37/74/21
f 33/75/22 38/76/22 34/77/22
f 32/78/23 39/79/23 33/80/23
f 2/1/1 3/81/1 4/2/1
f 6/4/2 7/82/2 8/5/2
f 4/7/3 6/83/3 5/8/3
f 3/10/4 7/84/4 6/11/4
f 2/13/5 8/85/5 7/14/5
f 1/16/6 5/86/6 8/17/6
f 13/21/7 9/87/7 11/19/7
f 9/87/24 10/88/24 11/19/24
f 15/22/8 16/89/8 17/23/8
f 18/25/25 19/90/25 20/26/25
f 22/30/10 12/91/10 11/28/10
f 11/28/4 16/52/4 15/29/4
f 10/31/6 9/39/6 14/32/6
f 18/35/26 9/87/26 13/21/26
f 13/21/27 23/92/27 19/34/27
f 14/36/12 21/93/12 20/37/12
f 9/39/6 18/94/6 21/40/6
f 23/95/28 22/30/28 19/42/28
f 22/30/29 15/29/29 19/42/29
f 10/96/30 24/97/30 11/45/30
f 24/97/14 13/43/14 11/45/14
f 17/23/15 16/89/15 27/46/15
f 28/48/31 29/98/31 30/49/31
f 11/28/32 25/99/32 22/30/32
f 22/30/32 27/51/32 11/28/32
f 10/31/6 17/33/6 26/53/6
f 13/43/33 24/97/33 28/100/33
f 28/100/34 31/55/34 13/43/34
f 30/57/18 29/101/18 26/58/18
f 29/60/6 28/102/6 24/54/6
f 27/51/35 22/30/35 31/61/35
f 22/30/36 23/95/36 31/61/36
f 33/63/1 34/103/1 35/64/1
f 37/66/2 38/104/2 39/67/2
f 32/69/20 35/105/20 37/70/20
f 35/72/21 34/106/21 38/73/21
f 33/75/22 39/107/22 38/76/22
f 32/78/23 36/108/23 39/79/23
