# Blender v2.91.2 OBJ File: 'Archer And Mage.blend'
# www.blender.org
mtllib Archer.mtl
o Archer_Box001.002
v 0.472801 -0.551909 0.167079
v -0.629459 -0.551909 0.167079
v -0.629459 0.550351 0.167080
v 0.472801 0.550351 0.167080
v 0.472801 -0.551910 1.338231
v 0.472801 0.550350 1.338231
v -0.629459 0.550350 1.338231
v -0.629459 -0.551910 1.338231
v 0.188025 -0.600602 0.978729
v -0.078143 -0.600602 1.210417
v -0.078143 0.604995 1.210417
v -0.112541 0.998626 -0.195943
v -0.078143 0.815596 -0.061508
v 0.507432 -0.600602 1.485968
v 0.507432 0.604995 1.485968
v -0.078143 0.604995 1.668902
v -0.078143 -0.600602 1.668902
v 0.384117 -0.600602 0.024888
v 0.384117 0.822919 -0.195584
v 0.891577 0.604995 -0.170818
v 0.891577 -0.600601 -0.170818
v -0.078143 0.976788 -0.102622
v -0.078143 0.986453 -0.195922
v -0.344318 -0.600602 0.978729
v -0.043746 0.998626 -0.195943
v -0.663719 -0.600602 1.485968
v -0.663719 0.604995 1.485968
v -0.540404 -0.600602 0.024888
v -1.047863 -0.600601 -0.170818
v -1.047863 0.604995 -0.170818
v -0.540404 0.822919 -0.195584
v 0.937259 -0.496699 -1.545020
v -1.129479 -0.496699 -1.545020
v -1.129479 0.978696 -1.545019
v 0.937259 0.978696 -1.545019
v 0.434621 -0.517209 0.209778
v 0.434621 0.544247 0.209779
v -0.626841 0.544247 0.209779
v -0.626841 -0.517209 0.209778
v 0.002707 -1.078837 -1.272996
v 0.002707 -0.739782 -1.272996
v 0.360942 -0.739782 -1.272996
v 0.360942 -1.078837 -1.272996
v 0.002707 -1.078838 1.171225
v 0.360942 -1.078838 1.171225
v 0.360942 -0.739783 1.171225
v 0.002707 -0.739783 1.171225
v 0.360942 -1.502395 -0.923821
v 0.002707 -1.502395 -0.923821
v 0.360942 -1.731004 -0.574646
v 0.002707 -1.731004 -0.574646
v 0.360942 -1.840692 -0.225470
v 0.002707 -1.840692 -0.225470
v 0.360942 -1.840692 0.123698
v 0.002707 -1.840692 0.123698
v 0.360942 -1.731004 0.472874
v 0.002707 -1.731004 0.472874
v 0.360942 -1.502395 0.822049
v 0.002707 -1.502395 0.822049
v 0.360942 -1.073147 -0.923820
v 0.360942 -1.297243 -0.574645
v 0.360942 -1.494424 -0.225470
v 0.360942 -1.494424 0.123698
v 0.360942 -1.297244 0.472874
v 0.360942 -1.073148 0.822049
v 0.002707 -1.073147 -0.923820
v 0.002707 -1.297243 -0.574645
v 0.002707 -1.494424 -0.225470
v 0.002707 -1.494424 0.123698
v 0.002707 -1.297244 0.472874
v 0.002707 -1.073148 0.822049
v 0.235587 -1.625848 -0.651480
v 0.498766 -0.133278 -0.651479
v 0.710200 -0.170555 -0.651479
v 0.447015 -1.663132 -0.651480
v 0.235587 -1.625848 -0.349702
v 0.447015 -1.663132 -0.349702
v 0.710200 -0.170555 -0.349701
v 0.498766 -0.133278 -0.349701
v -0.017609 -1.608150 -0.651480
v -0.775412 -0.295599 -0.651479
v -0.589482 -0.188253 -0.651479
v 0.168315 -1.500803 -0.651480
v -0.017609 -1.608150 -0.349702
v 0.168315 -1.500803 -0.349702
v -0.589482 -0.188253 -0.349701
v -0.775412 -0.295599 -0.349701
vt 0.819609 0.000000
vt 0.956704 0.137134
vt 0.819609 0.137134
vt 0.809633 0.561012
vt 0.946766 0.698145
vt 0.809633 0.698145
vt 0.000000 0.877872
vt 0.137125 0.732174
vt 0.137125 0.877831
vt 0.457838 0.912117
vt 0.593096 0.764946
vt 0.593096 0.910023
vt 0.908315 0.760433
vt 0.771684 0.905544
vt 0.771684 0.759960
vt 0.634613 0.905666
vt 0.771684 0.759964
vt 0.771684 0.905670
vt 0.457836 0.613214
vt 0.631775 0.561012
vt 0.615559 0.584352
vt 0.222428 0.717952
vt 0.295280 0.867942
vt 0.222428 0.867942
vt 0.200258 0.732176
vt 0.137124 0.882699
vt 0.137124 0.732751
vt 0.279209 0.379680
vt 0.242397 0.308613
vt 0.445885 0.368402
vt 0.497787 0.120594
vt 0.463505 0.193415
vt 0.440746 0.120596
vt 0.634613 0.588030
vt 0.609676 0.764945
vt 0.819609 0.000355
vt 0.669629 0.207260
vt 0.669629 0.000000
vt 0.526611 0.153692
vt 0.669628 0.241178
vt 0.445824 0.257008
vt 0.453598 0.314652
vt 0.651442 0.583737
vt 0.634613 0.561012
vt 0.809633 0.609982
vt 0.368133 0.717952
vt 0.368133 0.867942
vt 0.431267 0.895652
vt 0.368133 0.745130
vt 0.431267 0.717952
vt 0.247768 0.452241
vt 0.222427 0.380923
vt 0.463505 0.047777
vt 0.526611 0.087494
vt 0.636213 0.582157
vt 0.634724 0.562477
vt 0.731258 0.257008
vt 0.880659 0.464592
vt 0.731258 0.461079
vt 0.669628 0.000000
vt 0.457836 0.428034
vt 0.454720 0.494858
vt 0.000000 0.253639
vt 0.183505 0.510765
vt 0.000000 0.510765
vt 0.222428 1.000000
vt 0.354486 0.867942
vt 0.354486 1.000000
vt 0.183537 0.730595
vt 0.051494 0.511902
vt 0.183537 0.510765
vt 0.000000 0.253638
vt 0.222428 0.056219
vt 0.222428 0.186486
vt 0.405166 0.502176
vt 0.273697 0.712686
vt 0.222427 0.494857
vt 0.440746 0.257008
vt 0.222427 0.062435
vt 0.440746 0.000000
vt 0.731258 0.464590
vt 0.775827 0.506761
vt 0.731258 0.506761
vt 0.775827 0.506772
vt 0.820395 0.464590
vt 0.820395 0.506772
vt 0.731258 0.560467
vt 0.405167 0.712063
vt 0.450577 0.668594
vt 0.449715 0.712067
vt 0.406029 0.668591
vt 0.450991 0.625137
vt 0.406443 0.625134
vt 0.450991 0.581696
vt 0.406443 0.581696
vt 0.450577 0.538269
vt 0.406029 0.538269
vt 0.449715 0.494858
vt 0.775827 0.559467
vt 0.820395 0.559467
vt 0.552614 0.257020
vt 0.553324 0.300447
vt 0.499924 0.300463
vt 0.525444 0.343883
vt 0.471483 0.343899
vt 0.500916 0.387318
vt 0.457838 0.387330
vt 0.457838 0.430757
vt 0.500916 0.430744
vt 0.471483 0.474180
vt 0.525444 0.474165
vt 0.499924 0.517600
vt 0.553324 0.517584
vt 0.552614 0.561012
vt 0.892539 0.520412
vt 0.930887 0.473667
vt 0.936501 0.520874
vt 0.886926 0.473206
vt 0.927482 0.427761
vt 0.883520 0.427299
vt 0.924620 0.382175
vt 0.880659 0.381714
vt 0.925743 0.338936
vt 0.881782 0.338474
vt 0.930850 0.298042
vt 0.886888 0.297581
vt 0.936501 0.257469
vt 0.669630 0.207618
vt 0.710068 0.252186
vt 0.669630 0.252186
vt 0.636822 0.257154
vt 0.636117 0.300557
vt 0.594794 0.257008
vt 0.689324 0.300741
vt 0.663895 0.344059
vt 0.717662 0.344245
vt 0.688336 0.387549
vt 0.731258 0.387698
vt 0.688336 0.430955
vt 0.717662 0.474463
vt 0.663895 0.474276
vt 0.689324 0.517770
vt 0.636117 0.517586
vt 0.636822 0.560994
vt 0.594794 0.560848
vt 0.983415 0.188507
vt 0.956705 0.000002
vt 0.983415 0.000000
vt 0.936502 0.445566
vt 0.963211 0.257008
vt 0.963211 0.445565
vt 0.183505 0.476665
vt 0.209656 0.439127
vt 0.209656 0.476671
vt 0.183504 0.253639
vt 0.221037 0.439122
vt 0.183504 0.438944
vt 0.210097 0.677485
vt 0.184916 0.715693
vt 0.184916 0.678310
vt 0.184916 0.495260
vt 0.222427 0.677082
vt 0.184916 0.677485
vt 0.946766 0.561012
vt 0.973475 0.749537
vt 0.946767 0.749531
vt 0.972555 0.759962
vt 0.945845 0.948521
vt 0.945846 0.759962
vt 0.431267 0.755510
vt 0.454792 0.717953
vt 0.454792 0.755497
vt 0.908316 0.760493
vt 0.945845 0.924353
vt 0.908316 0.924884
vt 0.735084 0.208487
vt 0.710067 0.245003
vt 0.710067 0.207619
vt 0.593096 0.764944
vt 0.630604 0.936443
vt 0.593096 0.935734
vt 0.956704 0.000000
vt 0.946766 0.561012
vt 0.000000 0.732212
vt 0.457838 0.767040
vt 0.908315 0.906021
vt 0.634613 0.759960
vt 0.490105 0.764945
vt 0.459927 0.762640
vt 0.295280 0.717952
vt 0.200258 0.909876
vt 0.457836 0.371914
vt 0.631969 0.562884
vt 0.819609 0.207619
vt 0.645279 0.178074
vt 0.457542 0.367949
vt 0.809633 0.759962
vt 0.781651 0.759572
vt 0.368133 0.895077
vt 0.457520 0.363478
vt 0.663635 0.759255
vt 0.880659 0.260517
vt 0.645279 0.063106
vt 0.183505 0.253639
vt 0.222428 0.867942
vt 0.000000 0.732178
vt 0.000000 0.000000
vt 0.405166 0.717952
vt 0.222427 0.194431
vt 0.775827 0.464590
vt 0.775827 0.464590
vt 0.775827 0.560467
vt 0.405167 0.494858
vt 0.594795 0.257008
vt 0.594795 0.561000
vt 0.892539 0.257008
vt 0.710068 0.207618
vt 0.731258 0.431104
vt 0.956704 0.188509
vt 0.936501 0.257007
vt 0.183505 0.439121
vt 0.221037 0.253817
vt 0.210097 0.714869
vt 0.222427 0.494858
vt 0.973475 0.561018
vt 0.972555 0.948521
vt 0.431267 0.717966
vt 0.945845 0.759962
vt 0.735084 0.245869
vt 0.630604 0.765654
vn 0.0000 0.0000 -1.0000
vn 0.0000 -0.0000 1.0000
vn 1.0000 0.0000 0.0000
vn 0.0000 1.0000 0.0000
vn -1.0000 0.0000 0.0000
vn 0.0000 -1.0000 -0.0000
vn -0.9773 -0.2091 -0.0346
vn 0.2982 -0.0000 0.9545
vn -0.3598 0.0000 -0.9330
vn -0.1272 0.9544 0.2702
vn -0.2734 -0.1472 -0.9506
vn 0.9742 0.0000 0.2259
vn 0.3893 0.9167 0.0903
vn 0.9773 -0.2091 -0.0346
vn -0.2982 -0.0000 0.9545
vn 0.0175 -0.1530 -0.9881
vn 0.2131 -0.6041 -0.7679
vn -0.9742 -0.0000 0.2259
vn -0.3893 0.9167 0.0903
vn 0.9613 -0.0000 0.2754
vn 0.0000 0.9707 0.2403
vn -0.9613 -0.0000 0.2754
vn 0.0000 -0.9999 -0.0117
vn 0.0000 -0.6361 -0.7716
vn 0.0000 -0.8366 -0.5478
vn 0.0000 -0.9540 -0.2997
vn 0.0000 -0.9540 0.2997
vn 0.0000 -0.8366 0.5478
vn 0.0000 -0.6361 0.7716
vn 0.0000 0.7233 0.6905
vn 0.0000 0.8416 0.5401
vn 0.0000 0.8708 0.4917
vn 0.0000 0.8708 -0.4917
vn 0.0000 0.8416 -0.5401
vn 0.0000 0.7233 -0.6905
vn -0.1737 -0.9848 0.0000
vn 0.9848 -0.1737 0.0000
vn 0.1736 0.9848 0.0000
vn -0.9848 0.1736 0.0000
vn 0.5000 -0.8660 0.0000
vn 0.8660 0.5000 0.0000
vn -0.5000 0.8660 0.0000
vn -0.8660 -0.5000 0.0000
vn -0.6566 0.0000 -0.7543
vn -0.0175 -0.1530 -0.9881
vn -0.9296 -0.3151 -0.1911
vn -0.2131 -0.6041 -0.7679
vn 0.3319 0.9383 0.0972
vn 0.3319 0.9383 0.0973
vn 0.6566 0.0000 -0.7543
vn 0.3598 0.0000 -0.9330
vn 0.1272 0.9544 0.2702
vn 0.9296 -0.3151 -0.1911
vn 0.2734 -0.1472 -0.9506
vn -0.3319 0.9383 0.0973
vn -0.3319 0.9383 0.0972
usemtl Material.002
s off
f 2/1/1 4/2/1 1/3/1
f 6/4/2 8/5/2 5/6/2
f 4/7/3 5/8/3 1/9/3
f 3/10/4 6/11/4 4/12/4
f 2/13/5 7/14/5 3/15/5
f 1/16/6 8/17/6 2/18/6
f 11/19/7 12/20/7 13/21/7
f 15/22/8 17/23/8 14/24/8
f 18/25/9 20/26/9 21/27/9
f 11/28/10 15/29/10 22/30/10
f 10/31/6 14/32/6 17/33/6
f 13/21/11 19/34/11 18/35/11
f 14/36/12 20/37/12 15/38/12
f 9/39/6 21/40/6 14/32/6
f 15/29/13 20/41/13 19/42/13
f 13/43/14 25/44/14 11/45/14
f 17/23/15 27/46/15 26/47/15
f 28/48/16 30/49/16 31/50/16
f 27/51/4 16/52/4 11/28/4
f 10/31/6 26/53/6 24/54/6
f 31/55/17 23/56/17 13/43/17
f 30/57/18 26/58/18 27/59/18
f 29/60/6 24/54/6 26/53/6
f 31/61/19 30/62/19 27/51/19
f 33/63/1 35/64/1 32/65/1
f 37/66/2 39/67/2 36/68/2
f 32/69/20 37/70/20 36/71/20
f 35/72/21 38/73/21 37/74/21
f 33/75/22 38/76/22 34/77/22
f 32/78/23 39/79/23 33/80/23
f 41/81/1 43/82/1 40/83/1
f 45/84/2 47/85/2 44/86/2
f 43/82/24 49/87/24 40/83/24
f 48/88/25 51/89/25 49/90/25
f 50/91/26 53/92/26 51/89/26
f 52/93/6 55/94/6 53/92/6
f 54/95/27 57/96/27 55/94/27
f 56/97/28 59/98/28 57/96/28
f 58/99/29 44/86/29 59/100/29
f 43/101/3 60/102/3 48/103/3
f 48/103/3 61/104/3 50/105/3
f 50/105/3 62/106/3 52/107/3
f 62/106/3 54/108/3 52/107/3
f 63/109/3 56/110/3 54/108/3
f 64/111/3 58/112/3 56/110/3
f 65/113/3 45/114/3 58/112/3
f 41/115/30 60/116/30 42/117/30
f 66/118/31 61/119/31 60/116/31
f 67/120/32 62/121/32 61/119/32
f 68/122/4 63/123/4 62/121/4
f 69/124/33 64/125/33 63/123/33
f 70/126/34 65/127/34 64/125/34
f 71/128/35 46/129/35 65/130/35
f 40/131/5 66/132/5 41/133/5
f 49/134/5 67/135/5 66/132/5
f 51/136/5 68/137/5 67/135/5
f 53/138/5 69/139/5 68/137/5
f 69/139/5 57/140/5 70/141/5
f 70/141/5 59/142/5 71/143/5
f 71/143/5 44/144/5 47/145/5
f 73/146/1 75/147/1 72/148/1
f 77/149/2 79/150/2 76/151/2
f 75/152/36 76/153/36 72/154/36
f 74/155/37 77/156/37 75/157/37
f 73/158/38 78/159/38 74/160/38
f 72/161/39 79/162/39 73/163/39
f 81/164/1 83/165/1 80/166/1
f 85/167/2 87/168/2 84/169/2
f 83/170/40 84/171/40 80/172/40
f 82/173/41 85/174/41 83/175/41
f 81/176/42 86/177/42 82/178/42
f 80/179/43 87/180/43 81/181/43
f 2/1/1 3/182/1 4/2/1
f 6/4/2 7/183/2 8/5/2
f 4/7/3 6/184/3 5/8/3
f 3/10/4 7/185/4 6/11/4
f 2/13/5 8/186/5 7/14/5
f 1/16/6 5/187/6 8/17/6
f 13/21/7 9/188/7 11/19/7
f 9/188/44 10/189/44 11/19/44
f 15/22/8 16/190/8 17/23/8
f 18/25/45 19/191/45 20/26/45
f 22/30/10 12/192/10 11/28/10
f 11/28/4 16/52/4 15/29/4
f 10/31/6 9/39/6 14/32/6
f 18/35/46 9/188/46 13/21/46
f 13/21/47 23/193/47 19/34/47
f 14/36/12 21/194/12 20/37/12
f 9/39/6 18/195/6 21/40/6
f 23/196/48 22/30/48 19/42/48
f 22/30/49 15/29/49 19/42/49
f 10/197/50 24/198/50 11/45/50
f 24/198/14 13/43/14 11/45/14
f 17/23/15 16/190/15 27/46/15
f 28/48/51 29/199/51 30/49/51
f 11/28/52 25/200/52 22/30/52
f 22/30/52 27/51/52 11/28/52
f 10/31/6 17/33/6 26/53/6
f 13/43/53 24/198/53 28/201/53
f 28/201/54 31/55/54 13/43/54
f 30/57/18 29/202/18 26/58/18
f 29/60/6 28/203/6 24/54/6
f 27/51/55 22/30/55 31/61/55
f 22/30/56 23/196/56 31/61/56
f 33/63/1 34/204/1 35/64/1
f 37/66/2 38/205/2 39/67/2
f 32/69/20 35/206/20 37/70/20
f 35/72/21 34/207/21 38/73/21
f 33/75/22 39/208/22 38/76/22
f 32/78/23 36/209/23 39/79/23
f 41/81/1 42/210/1 43/82/1
f 45/84/2 46/211/2 47/85/2
f 43/82/24 48/212/24 49/87/24
f 48/88/25 50/91/25 51/89/25
f 50/91/26 52/93/26 53/92/26
f 52/93/6 54/95/6 55/94/6
f 54/95/27 56/97/27 57/96/27
f 56/97/28 58/213/28 59/98/28
f 58/99/29 45/84/29 44/86/29
f 43/101/3 42/214/3 60/102/3
f 48/103/3 60/102/3 61/104/3
f 50/105/3 61/104/3 62/106/3
f 62/106/3 63/109/3 54/108/3
f 63/109/3 64/111/3 56/110/3
f 64/111/3 65/113/3 58/112/3
f 65/113/3 46/215/3 45/114/3
f 41/115/30 66/118/30 60/116/30
f 66/118/31 67/120/31 61/119/31
f 67/120/32 68/122/32 62/121/32
f 68/122/4 69/124/4 63/123/4
f 69/124/33 70/126/33 64/125/33
f 70/126/34 71/216/34 65/127/34
f 71/128/35 47/217/35 46/129/35
f 40/131/5 49/134/5 66/132/5
f 49/134/5 51/136/5 67/135/5
f 51/136/5 53/138/5 68/137/5
f 53/138/5 55/218/5 69/139/5
f 69/139/5 55/218/5 57/140/5
f 70/141/5 57/140/5 59/142/5
f 71/143/5 59/142/5 44/144/5
f 73/146/1 74/219/1 75/147/1
f 77/149/2 78/220/2 79/150/2
f 75/152/36 77/221/36 76/153/36
f 74/155/37 78/222/37 77/156/37
f 73/158/38 79/223/38 78/159/38
f 72/161/39 76/224/39 79/162/39
f 81/164/1 82/225/1 83/165/1
f 85/167/2 86/226/2 87/168/2
f 83/170/40 85/227/40 84/171/40
f 82/173/41 86/228/41 85/174/41
f 81/176/42 87/229/42 86/177/42
f 80/179/43 84/230/43 87/180/43
