# Blender v2.91.2 OBJ File: 'DoorModel.blend'
# www.blender.org
mtllib DoorModel.mtl
o DoorModel_Box002
v 2.100479 -1.950667 -1.250001
v 1.350480 -1.950667 -1.250000
v 1.350480 1.716015 -1.250000
v 2.100480 1.716015 -1.250001
v 2.100481 0.382267 2.874999
v 2.100481 1.716015 2.874999
v 1.350481 1.716015 2.874999
v 1.350481 0.382267 2.874999
v 2.100480 1.716015 -0.425001
v 2.100480 -1.658985 -0.425001
v 2.100480 1.716015 0.399999
v 2.100480 -0.822270 0.399999
v 2.100481 1.716015 1.224999
v 2.100480 -0.587108 1.224999
v 2.100481 1.716015 2.049999
v 2.100481 0.156802 2.049999
v 1.350480 1.716015 -0.425001
v 1.350480 1.716015 0.399999
v 1.350481 1.716015 1.224999
v 1.350481 1.716015 2.049999
v 1.350480 -1.658985 -0.425001
v 1.350480 -0.822270 0.399999
v 1.350480 -0.587108 1.224999
v 1.350481 0.156802 2.049999
v -0.050196 1.716015 2.049999
v -0.050196 0.156802 2.049999
v -0.050196 0.382267 2.875000
v -0.050196 1.716015 2.875000
v -2.100817 -1.950667 -1.249999
v -2.100817 1.716015 -1.249999
v -1.350817 1.716015 -1.250000
v -1.350817 -1.950667 -1.250000
v -2.100816 0.382268 2.875000
v -1.350816 0.382268 2.875000
v -1.350816 1.716015 2.875000
v -2.100816 1.716015 2.875000
v -2.100817 -1.658985 -0.424999
v -2.100817 1.716015 -0.424999
v -2.100817 -0.822270 0.400000
v -2.100816 1.716015 0.400000
v -2.100816 -0.587107 1.225000
v -2.100816 1.716015 1.225000
v -2.100816 0.156803 2.050000
v -2.100816 1.716015 2.050000
v -1.350817 1.716015 -0.425000
v -1.350817 1.716015 0.400000
v -1.350816 1.716015 1.225000
v -1.350816 1.716015 2.050000
v -1.350817 -1.658985 -0.425000
v -1.350817 -0.822270 0.400000
v -1.350817 -0.587107 1.225000
v -1.350816 0.156803 2.050000
v 0.049869 1.716015 2.049999
v 0.049869 1.716015 2.875000
v 0.049869 0.382267 2.875000
v 0.049869 0.156802 2.049999
v 1.498912 -1.495972 -1.250000
v -0.001088 -1.495972 -1.250000
v -0.001087 1.504027 -1.250000
v 1.498912 1.504027 -1.250000
v 1.498914 1.476090 2.499999
v 1.498914 1.504027 2.499999
v -0.001086 1.504027 2.500000
v -0.001086 1.476090 2.500000
v -1.501087 -1.495972 -1.250000
v -1.501087 1.504027 -1.250000
v -1.501086 1.476090 2.500000
v -1.501086 1.504027 2.500000
vt 0.640274 0.560497
vt 0.586323 0.824261
vt 0.586323 0.560497
vt 0.215807 0.560497
vt 0.269758 0.604599
vt 0.215807 0.604599
vt 0.527527 0.000000
vt 0.284746 0.059347
vt 0.263763 0.000000
vt 0.527527 0.059347
vt 0.344934 0.118693
vt 0.527527 0.118693
vt 0.361851 0.178040
vt 0.527527 0.178040
vt 0.415365 0.237387
vt 0.527527 0.237387
vt 0.431583 0.296733
vt 0.946048 0.593468
vt 1.000000 0.534122
vt 1.000000 0.593468
vt 0.946048 0.534122
vt 1.000000 0.474773
vt 0.946048 0.474773
vt 1.000000 0.415428
vt 0.946048 0.415428
vt 1.000000 0.356079
vt 0.946048 0.356079
vt 1.000000 0.296734
vt 0.215806 0.560497
vt 0.275153 0.317717
vt 0.275153 0.560497
vt 0.334500 0.377905
vt 0.334500 0.560497
vt 0.393846 0.394821
vt 0.393846 0.560497
vt 0.453193 0.448336
vt 0.453193 0.560497
vt 0.471275 0.942418
vt 0.530621 0.846474
vt 0.530621 0.942418
vt 0.215807 0.945267
vt 0.269758 0.882915
vt 0.269758 0.945267
vt 0.215807 0.882915
vt 0.269758 0.802544
vt 0.215807 0.802544
vt 0.269758 0.742062
vt 0.215807 0.742062
vt 0.269758 0.664757
vt 0.215807 0.664757
vt 0.269758 0.560497
vt 0.370518 0.604599
vt 0.845290 0.296734
vt 0.946048 0.296734
vt 0.370516 0.830256
vt 0.370516 0.942418
vt 0.370518 0.664757
vt 0.951996 0.263763
vt 0.898045 0.000000
vt 0.951996 0.000000
vt 0.744532 0.637402
vt 0.690580 0.681501
vt 0.690580 0.637402
vt 0.020983 0.237389
vt 0.263763 0.296734
vt 0.000000 0.296734
vt 0.081171 0.178040
vt 0.263763 0.237389
vt 0.098087 0.118694
vt 0.263763 0.178040
vt 0.151602 0.059345
vt 0.263763 0.118694
vt 0.167820 0.000000
vt 0.263763 0.059345
vt 0.898045 0.059347
vt 0.844094 0.000000
vt 0.898045 0.000000
vt 0.898045 0.118693
vt 0.844094 0.059347
vt 0.898045 0.178040
vt 0.844094 0.118693
vt 0.898045 0.237387
vt 0.844094 0.178040
vt 0.898045 0.296733
vt 0.844094 0.237387
vt 0.690582 0.560497
vt 0.631233 0.317717
vt 0.690582 0.296734
vt 0.631233 0.560497
vt 0.571888 0.377905
vt 0.571888 0.560497
vt 0.512539 0.394821
vt 0.512539 0.560497
vt 0.453194 0.448336
vt 0.965733 0.793664
vt 0.906387 0.697720
vt 0.965733 0.681501
vt 0.744532 0.359084
vt 0.690580 0.296734
vt 0.744532 0.296734
vt 0.744532 0.439456
vt 0.690580 0.359084
vt 0.744532 0.499938
vt 0.690580 0.439456
vt 0.744532 0.577241
vt 0.690580 0.499937
vt 0.690580 0.577241
vt 0.845291 0.637402
vt 0.744532 0.681501
vt 0.743335 0.296733
vt 0.844094 0.296733
vt 0.586322 0.936424
vt 0.687081 0.824262
vt 0.687081 0.936424
vt 0.845291 0.577241
vt 0.690580 0.789404
vt 0.906387 0.897308
vt 0.690580 0.897308
vt 0.000000 0.296734
vt 0.107903 0.297657
vt 0.000000 0.297657
vt 0.000000 0.905258
vt 0.002010 0.635502
vt 0.215807 0.905258
vt 0.478418 0.560498
vt 0.370516 0.830256
vt 0.370516 0.560498
vt 0.000000 0.635502
vt 0.107903 0.635502
vt 0.906387 0.681501
vt 0.690580 0.681501
vt 0.215807 0.296734
vt 0.215807 0.297657
vt 0.741325 0.000000
vt 0.743336 0.269756
vt 0.527529 0.269756
vt 0.586323 0.830256
vt 0.586323 0.560498
vt 0.215807 0.635502
vt 0.640274 0.824261
vt 0.527527 0.296733
vt 0.215806 0.296734
vt 0.471275 0.830256
vt 0.370518 0.560497
vt 0.845290 0.356079
vt 0.898045 0.263763
vt 0.263763 0.000000
vt 0.453194 0.560497
vt 0.906387 0.793664
vt 0.845291 0.681501
vt 0.743335 0.237387
vt 0.586322 0.824262
vt 0.906387 0.789404
vt 0.107903 0.296734
vt 0.000000 0.635502
vt 0.478418 0.830256
vt 0.743336 0.000000
vn -0.0000 0.0000 -1.0000
vn -0.0000 0.0000 1.0000
vn 1.0000 -0.0000 -0.0000
vn 0.0000 1.0000 -0.0000
vn -1.0000 0.0000 0.0000
vn 0.0000 -0.9428 0.3333
vn 0.0000 -0.7021 0.7121
vn 0.0000 -0.9617 0.2741
vn 0.0000 -0.7427 0.6697
vn 0.0000 -0.9646 0.2636
vn 0.0000 -0.7837 0.6211
usemtl Material.001
s off
f 2/1/1 4/2/1 1/3/1
f 6/4/2 8/5/2 5/6/2
f 4/7/3 10/8/3 1/9/3
f 9/10/3 12/11/3 10/8/3
f 11/12/3 14/13/3 12/11/3
f 13/14/3 16/15/3 14/13/3
f 15/16/3 5/17/3 16/15/3
f 3/18/4 9/19/4 4/20/4
f 17/21/4 11/22/4 9/19/4
f 18/23/4 13/24/4 11/22/4
f 19/25/4 15/26/4 13/24/4
f 20/27/4 6/28/4 15/26/4
f 3/29/5 21/30/5 17/31/5
f 17/31/5 22/32/5 18/33/5
f 18/33/5 23/34/5 19/35/5
f 19/35/5 24/36/5 20/37/5
f 25/38/5 27/39/5 28/40/5
f 1/41/6 21/42/6 2/43/6
f 10/44/7 22/45/7 21/42/7
f 12/46/8 23/47/8 22/45/8
f 14/48/9 24/49/9 23/47/9
f 16/50/10 8/5/10 24/49/10
f 7/51/2 27/52/2 8/5/2
f 20/27/4 28/53/4 7/54/4
f 24/55/1 25/38/1 20/56/1
f 8/5/10 26/57/10 24/49/10
f 30/58/1 32/59/1 29/60/1
f 34/61/2 36/62/2 33/63/2
f 37/64/5 30/65/5 29/66/5
f 39/67/5 38/68/5 37/64/5
f 41/69/5 40/70/5 39/67/5
f 43/71/5 42/72/5 41/69/5
f 33/73/5 44/74/5 43/71/5
f 38/75/4 31/76/4 30/77/4
f 40/78/4 45/79/4 38/75/4
f 42/80/4 46/81/4 40/78/4
f 44/82/4 47/83/4 42/80/4
f 36/84/4 48/85/4 44/82/4
f 31/86/3 49/87/3 32/88/3
f 45/89/3 50/90/3 49/87/3
f 46/91/3 51/92/3 50/90/3
f 47/93/3 52/94/3 51/92/3
f 53/95/3 55/96/3 56/97/3
f 49/98/6 29/99/6 32/100/6
f 50/101/7 37/102/7 49/98/7
f 51/103/8 39/104/8 50/101/8
f 52/105/9 41/106/9 51/103/9
f 34/61/10 43/107/10 52/105/10
f 55/108/2 35/109/2 34/61/2
f 54/110/4 48/85/4 35/111/4
f 53/112/1 52/113/1 48/114/1
f 56/115/10 34/61/10 52/105/10
f 58/116/1 60/117/1 57/118/1
f 62/119/2 64/120/2 61/121/2
f 60/122/3 61/123/3 57/124/3
f 59/125/4 62/126/4 60/127/4
f 57/128/11 64/120/11 58/129/11
f 66/130/1 58/116/1 65/131/1
f 64/120/2 68/132/2 67/133/2
f 67/134/5 66/135/5 65/136/5
f 68/137/4 59/125/4 66/138/4
f 64/120/11 65/139/11 58/129/11
f 2/1/1 3/140/1 4/2/1
f 6/4/2 7/51/2 8/5/2
f 4/7/3 9/10/3 10/8/3
f 9/10/3 11/12/3 12/11/3
f 11/12/3 13/14/3 14/13/3
f 13/14/3 15/16/3 16/15/3
f 15/16/3 6/141/3 5/17/3
f 3/18/4 17/21/4 9/19/4
f 17/21/4 18/23/4 11/22/4
f 18/23/4 19/25/4 13/24/4
f 19/25/4 20/27/4 15/26/4
f 20/27/4 7/54/4 6/28/4
f 3/29/5 2/142/5 21/30/5
f 17/31/5 21/30/5 22/32/5
f 18/33/5 22/32/5 23/34/5
f 19/35/5 23/34/5 24/36/5
f 25/38/5 26/143/5 27/39/5
f 1/41/6 10/44/6 21/42/6
f 10/44/7 12/46/7 22/45/7
f 12/46/8 14/48/8 23/47/8
f 14/48/9 16/50/9 24/49/9
f 16/50/10 5/6/10 8/5/10
f 7/51/2 28/144/2 27/52/2
f 20/27/4 25/145/4 28/53/4
f 24/55/1 26/143/1 25/38/1
f 8/5/10 27/52/10 26/57/10
f 30/58/1 31/146/1 32/59/1
f 34/61/2 35/109/2 36/62/2
f 37/64/5 38/68/5 30/65/5
f 39/67/5 40/70/5 38/68/5
f 41/69/5 42/72/5 40/70/5
f 43/71/5 44/74/5 42/72/5
f 33/73/5 36/147/5 44/74/5
f 38/75/4 45/79/4 31/76/4
f 40/78/4 46/81/4 45/79/4
f 42/80/4 47/83/4 46/81/4
f 44/82/4 48/85/4 47/83/4
f 36/84/4 35/111/4 48/85/4
f 31/86/3 45/89/3 49/87/3
f 45/89/3 46/91/3 50/90/3
f 46/91/3 47/93/3 51/92/3
f 47/93/3 48/148/3 52/94/3
f 53/95/3 54/149/3 55/96/3
f 49/98/6 37/102/6 29/99/6
f 50/101/7 39/104/7 37/102/7
f 51/103/8 41/106/8 39/104/8
f 52/105/9 43/107/9 41/106/9
f 34/61/10 33/63/10 43/107/10
f 55/108/2 54/150/2 35/109/2
f 54/110/4 53/151/4 48/85/4
f 53/112/1 56/152/1 52/113/1
f 56/115/10 55/108/10 34/61/10
f 58/116/1 59/153/1 60/117/1
f 62/119/2 63/154/2 64/120/2
f 60/122/3 62/155/3 61/123/3
f 59/125/4 63/156/4 62/126/4
f 57/128/11 61/121/11 64/120/11
f 66/130/1 59/153/1 58/116/1
f 64/120/2 63/154/2 68/132/2
f 67/134/5 68/157/5 66/135/5
f 68/137/4 63/156/4 59/125/4
f 64/120/11 67/133/11 65/139/11
