# Blender v2.91.2 OBJ File: 'DoorModel.blend'
# www.blender.org
mtllib DoorModelClosed.mtl
o DoorModelClosed_Box001.001
v 1.498912 -1.690830 -1.250000
v 1.056075 -1.690830 -1.250000
v 1.056075 0.475507 -1.250000
v 1.498912 0.475507 -1.250000
v 1.498914 0.447570 2.499999
v 1.498914 0.475507 2.499999
v 1.056076 0.475507 2.499999
v 1.056076 0.447570 2.499999
v 1.498912 0.475507 -0.833001
v 1.498912 -1.453042 -0.833001
v 1.056075 0.475507 -0.833000
v -0.001088 -1.690830 -1.250000
v 1.056075 -1.453042 -0.833000
v -0.001087 -1.453042 -0.833000
v 1.498913 0.475507 1.636847
v 1.498913 -0.044633 1.636847
v -0.001087 0.475507 -0.833000
v -0.001087 0.475507 1.636847
v 1.056076 0.475507 1.636847
v 1.056076 -0.044633 1.636847
v -0.001087 0.475507 -1.250000
v -0.001086 0.475507 2.500000
v -0.001086 0.447570 2.500000
v -0.001087 -0.044632 1.636847
v -0.001087 0.199957 1.497370
v -0.001088 -1.208452 -0.972478
v 1.056075 -1.208452 -0.972478
v 1.056076 0.199957 1.497369
v -1.501087 -1.690830 -1.250000
v -1.501087 0.475508 -1.250000
v -1.058250 0.475507 -1.250000
v -1.058250 -1.690830 -1.250000
v -1.501086 0.447570 2.500000
v -1.058249 0.447570 2.500000
v -1.058249 0.475507 2.500000
v -1.501086 0.475508 2.500000
v -1.501087 -1.453042 -0.833000
v -1.501087 0.475508 -0.833000
v -1.058250 0.475507 -0.833000
v -1.058250 -1.453042 -0.833000
v -1.501086 -0.044632 1.636847
v -1.501086 0.475508 1.636847
v -1.058249 0.475507 1.636847
v -1.058249 -0.044632 1.636847
v -1.058249 0.199958 1.497370
v -1.058250 -1.208452 -0.972477
v 2.100479 -1.950667 -1.250001
v 1.350480 -1.950667 -1.250000
v 1.350480 1.716015 -1.250000
v 2.100480 1.716015 -1.250001
v 2.100481 0.382267 2.874999
v 2.100481 1.716015 2.874999
v 1.350481 1.716015 2.874999
v 1.350481 0.382267 2.874999
v 2.100480 1.716015 -0.425001
v 2.100480 -1.658985 -0.425001
v 2.100480 1.716015 0.399999
v 2.100480 -0.822270 0.399999
v 2.100481 1.716015 1.224999
v 2.100480 -0.587108 1.224999
v 2.100481 1.716015 2.049999
v 2.100481 0.156802 2.049999
v 1.350480 1.716015 -0.425001
v 1.350480 1.716015 0.399999
v 1.350481 1.716015 1.224999
v 1.350481 1.716015 2.049999
v 1.350480 -1.658985 -0.425001
v 1.350480 -0.822270 0.399999
v 1.350480 -0.587108 1.224999
v 1.350481 0.156802 2.049999
v -0.050196 1.716015 2.049999
v -0.050196 0.156802 2.049999
v -0.050196 0.382267 2.875000
v -0.050196 1.716015 2.875000
v -2.100817 -1.950667 -1.249999
v -2.100817 1.716015 -1.249999
v -1.350817 1.716015 -1.250000
v -1.350817 -1.950667 -1.250000
v -2.100816 0.382268 2.875000
v -1.350816 0.382268 2.875000
v -1.350816 1.716015 2.875000
v -2.100816 1.716015 2.875000
v -2.100817 -1.658985 -0.424999
v -2.100817 1.716015 -0.424999
v -2.100817 -0.822270 0.400000
v -2.100816 1.716015 0.400000
v -2.100816 -0.587107 1.225000
v -2.100816 1.716015 1.225000
v -2.100816 0.156803 2.050000
v -2.100816 1.716015 2.050000
v -1.350817 1.716015 -0.425000
v -1.350817 1.716015 0.400000
v -1.350816 1.716015 1.225000
v -1.350816 1.716015 2.050000
v -1.350817 -1.658985 -0.425000
v -1.350817 -0.822270 0.400000
v -1.350817 -0.587107 1.225000
v -1.350816 0.156803 2.050000
v 0.049869 1.716015 2.049999
v 0.049869 1.716015 2.875000
v 0.049869 0.382267 2.875000
v 0.049869 0.156802 2.049999
vt 0.692390 0.823559
vt 0.847834 0.855497
vt 0.692390 0.855497
vt 0.681719 0.778339
vt 0.683724 0.746401
vt 0.683724 0.778339
vt 0.000000 0.879124
vt 0.139095 0.849049
vt 0.156245 0.879124
vt 0.560850 0.000000
vt 0.528912 0.030076
vt 0.528912 0.000000
vt 0.031939 0.608658
vt 0.108187 0.574059
vt 0.108187 0.608658
vt 0.000000 0.849049
vt 0.037515 0.670914
vt 0.637098 0.208211
vt 0.560850 0.030076
vt 0.637098 0.030076
vt 0.000000 0.369129
vt 0.031939 0.574059
vt 0.000000 0.574059
vt 0.692390 0.747313
vt 0.847834 0.823559
vt 0.681719 0.670155
vt 0.681719 0.746401
vt 0.637098 0.000000
vt 0.000000 0.608658
vt 0.528912 0.270465
vt 0.560850 0.208211
vt 0.560850 0.270465
vt 0.108187 0.297512
vt 0.031939 0.369129
vt 0.031939 0.297512
vt 0.000000 0.670914
vt 0.002015 0.608658
vt 0.637098 0.270465
vt 0.000000 0.297512
vt 0.528912 0.208211
vt 0.923754 0.502441
vt 0.847507 0.297512
vt 0.923754 0.297512
vt 0.982409 0.791619
vt 0.963841 0.715373
vt 0.982409 0.715373
vt 0.955622 0.205063
vt 0.975929 0.000000
vt 0.975929 0.205063
vt 0.963841 0.867867
vt 0.982410 0.944113
vt 0.963841 0.944113
vt 0.847834 0.639126
vt 0.692390 0.671064
vt 0.692390 0.639126
vt 0.683724 0.593906
vt 0.681719 0.561968
vt 0.683724 0.561968
vt 0.762434 0.240391
vt 0.901527 0.270466
vt 0.745283 0.270466
vt 0.745283 0.030076
vt 0.713345 0.000000
vt 0.745283 0.000000
vt 0.184433 0.608658
vt 0.901527 0.240391
vt 0.864014 0.062256
vt 0.901527 0.062256
vt 0.713345 0.030076
vt 0.184433 0.574059
vt 0.216372 0.369129
vt 0.216372 0.574059
vt 0.847834 0.671064
vt 0.681719 0.593906
vt 0.216372 0.608658
vt 0.713345 0.208211
vt 0.745283 0.270465
vt 0.713345 0.270465
vt 0.184433 0.369129
vt 0.184433 0.297512
vt 0.899513 0.000000
vt 0.901527 0.000000
vt 0.216372 0.297512
vt 0.745283 0.208211
vt 1.000000 0.297512
vt 0.982409 0.639126
vt 0.943535 0.639125
vt 0.963842 0.844188
vt 0.943535 0.844188
vt 0.982410 0.791619
vt 0.963841 0.791619
vt 0.210337 0.608656
vt 0.156244 0.871754
vt 0.156244 0.608656
vt 0.847834 0.949357
vt 0.943535 0.895264
vt 0.943535 0.949357
vt 0.528912 0.000000
vt 0.285494 0.059502
vt 0.264456 0.000000
vt 0.528912 0.059502
vt 0.345840 0.119005
vt 0.528912 0.119005
vt 0.362801 0.178507
vt 0.528912 0.178507
vt 0.416454 0.238009
vt 0.528912 0.238009
vt 0.432716 0.297512
vt 0.627626 0.859478
vt 0.681719 0.799976
vt 0.681719 0.859478
vt 0.627626 0.799976
vt 0.681719 0.740475
vt 0.627626 0.740475
vt 0.681719 0.680969
vt 0.627626 0.680969
vt 0.681719 0.621468
vt 0.627626 0.621468
vt 0.681719 0.561966
vt 0.216372 0.561968
vt 0.275874 0.318550
vt 0.275874 0.561968
vt 0.335377 0.378897
vt 0.335377 0.561968
vt 0.394879 0.395857
vt 0.394879 0.561968
vt 0.454381 0.449511
vt 0.454381 0.561968
vt 0.430988 0.971935
vt 0.490490 0.875740
vt 0.490490 0.971935
vt 0.216372 0.903580
vt 0.270464 0.841106
vt 0.270464 0.903580
vt 0.216372 0.841106
vt 0.270464 0.760406
vt 0.216372 0.760406
vt 0.270464 0.699821
vt 0.216372 0.699821
vt 0.270464 0.622227
vt 0.216372 0.622227
vt 0.270464 0.561966
vt 0.847834 0.895264
vt 0.943535 0.794241
vt 0.526604 0.561966
vt 0.627626 0.561966
vt 0.692390 0.855497
vt 0.793413 0.967376
vt 0.692390 0.967376
vt 0.371487 0.622227
vt 0.955622 0.263098
vt 0.901529 0.000000
vt 0.955622 0.000000
vt 0.943535 0.693218
vt 0.847834 0.639126
vt 0.943535 0.639126
vt 0.021038 0.238010
vt 0.264456 0.297512
vt 0.000000 0.297512
vt 0.081385 0.178509
vt 0.264456 0.238010
vt 0.098345 0.119003
vt 0.264456 0.178509
vt 0.151999 0.059502
vt 0.264456 0.119003
vt 0.168261 0.000000
vt 0.264456 0.059502
vt 0.526603 0.621470
vt 0.472510 0.561967
vt 0.526603 0.561967
vt 0.526603 0.680972
vt 0.472510 0.621470
vt 0.526603 0.740474
vt 0.472510 0.680972
vt 0.526603 0.799977
vt 0.472510 0.740474
vt 0.526603 0.859479
vt 0.472510 0.799977
vt 0.692390 0.561968
vt 0.632889 0.318550
vt 0.692390 0.297512
vt 0.632889 0.561968
vt 0.573383 0.378897
vt 0.573383 0.561968
vt 0.513882 0.395857
vt 0.513882 0.561968
vt 0.454380 0.449511
vt 0.430988 0.971935
vt 0.371487 0.875740
vt 0.430988 0.859479
vt 0.746483 0.359986
vt 0.692390 0.297511
vt 0.746483 0.297511
vt 0.746483 0.440684
vt 0.692390 0.359986
vt 0.746483 0.501269
vt 0.692390 0.440684
vt 0.746483 0.578864
vt 0.692390 0.501269
vt 0.746483 0.639125
vt 0.692390 0.578864
vt 0.943535 0.794241
vt 0.847834 0.693218
vt 0.371487 0.859479
vt 0.472510 0.859479
vt 0.847506 0.614319
vt 0.948529 0.502440
vt 0.948529 0.614319
vt 0.847506 0.578864
vt 0.847834 0.747313
vt 0.683724 0.670155
vt 0.108187 0.369129
vt 0.000000 0.608658
vt 0.847507 0.502441
vt 0.963841 0.791619
vt 0.955622 0.000000
vt 0.982410 0.867867
vt 1.000000 0.502441
vt 0.963841 0.639126
vt 0.210337 0.871754
vt 0.528912 0.297512
vt 0.216372 0.297512
vt 0.430988 0.859479
vt 0.216372 0.561966
vt 0.847834 0.794241
vt 0.526604 0.621468
vt 0.793413 0.855497
vt 0.371487 0.561966
vt 0.901529 0.263098
vt 0.264456 0.000000
vt 0.454380 0.561968
vt 0.371487 0.971935
vt 0.692390 0.639125
vt 0.847834 0.794241
vt 0.371487 0.799977
vt 0.847506 0.502440
vt 0.847506 0.639125
vn 0.0000 0.0000 -1.0000
vn -0.0000 0.0000 1.0000
vn 1.0000 0.0000 -0.0000
vn 0.0000 1.0000 0.0000
vn 0.0000 -0.8687 0.4954
vn 0.0000 0.4954 0.8687
vn -1.0000 0.0000 0.0000
vn -0.0000 -0.4954 -0.8687
vn 0.0000 -0.9428 0.3333
vn 0.0000 -0.7021 0.7121
vn 0.0000 -0.9617 0.2741
vn 0.0000 -0.7427 0.6697
vn 0.0000 -0.9646 0.2636
usemtl Material.002
s off
f 2/1/1 4/2/1 1/3/1
f 6/4/2 8/5/2 5/6/2
f 4/7/3 10/8/3 1/9/3
f 3/10/4 9/11/4 4/12/4
f 2/13/5 14/14/5 12/15/5
f 9/16/3 16/17/3 10/8/3
f 18/18/4 11/19/4 17/20/4
f 16/21/5 13/22/5 10/23/5
f 12/24/1 3/25/1 2/1/1
f 22/26/2 8/5/2 7/27/2
f 21/28/4 11/19/4 3/10/4
f 1/29/5 13/22/5 2/13/5
f 6/30/4 19/31/4 7/32/4
f 23/33/5 20/34/5 8/35/5
f 15/36/3 5/37/3 16/17/3
f 22/38/4 19/31/4 18/18/4
f 5/39/5 20/34/5 16/21/5
f 9/11/4 19/31/4 15/40/4
f 26/41/5 28/42/5 25/43/5
f 13/44/6 26/45/6 14/46/6
f 13/47/7 28/48/7 27/49/7
f 24/50/8 28/51/8 20/52/8
f 30/53/1 32/54/1 29/55/1
f 34/56/2 36/57/2 33/58/2
f 37/59/7 30/60/7 29/61/7
f 38/62/4 31/63/4 30/64/4
f 14/14/5 32/65/5 12/15/5
f 38/66/7 41/67/7 42/68/7
f 39/69/4 18/18/4 17/20/4
f 40/70/5 41/71/5 37/72/5
f 31/73/1 12/24/1 32/54/1
f 34/56/2 22/26/2 35/74/2
f 39/69/4 21/28/4 31/63/4
f 40/70/5 29/75/5 32/65/5
f 43/76/4 36/77/4 35/78/4
f 44/79/5 23/33/5 34/80/5
f 42/68/7 33/81/7 36/82/7
f 43/76/4 22/38/4 18/18/4
f 44/79/5 33/83/5 41/71/5
f 43/76/4 38/62/4 42/84/4
f 45/85/5 26/41/5 25/43/5
f 26/45/6 40/86/6 14/46/6
f 40/87/3 45/88/3 44/89/3
f 45/90/8 24/50/8 44/91/8
f 48/92/1 50/93/1 47/94/1
f 52/95/2 54/96/2 51/97/2
f 50/98/3 56/99/3 47/100/3
f 55/101/3 58/102/3 56/99/3
f 57/103/3 60/104/3 58/102/3
f 59/105/3 62/106/3 60/104/3
f 61/107/3 51/108/3 62/106/3
f 49/109/4 55/110/4 50/111/4
f 63/112/4 57/113/4 55/110/4
f 64/114/4 59/115/4 57/113/4
f 65/116/4 61/117/4 59/115/4
f 66/118/4 52/119/4 61/117/4
f 49/120/7 67/121/7 63/122/7
f 63/122/7 68/123/7 64/124/7
f 64/124/7 69/125/7 65/126/7
f 65/126/7 70/127/7 66/128/7
f 71/129/7 73/130/7 74/131/7
f 47/132/9 67/133/9 48/134/9
f 56/135/10 68/136/10 67/133/10
f 58/137/11 69/138/11 68/136/11
f 60/139/12 70/140/12 69/138/12
f 62/141/13 54/142/13 70/140/13
f 53/143/2 73/144/2 54/96/2
f 66/118/4 74/145/4 53/146/4
f 70/147/1 71/148/1 66/149/1
f 54/142/13 72/150/13 70/140/13
f 76/151/1 78/152/1 75/153/1
f 80/154/2 82/155/2 79/156/2
f 83/157/7 76/158/7 75/159/7
f 85/160/7 84/161/7 83/157/7
f 87/162/7 86/163/7 85/160/7
f 89/164/7 88/165/7 87/162/7
f 79/166/7 90/167/7 89/164/7
f 84/168/4 77/169/4 76/170/4
f 86/171/4 91/172/4 84/168/4
f 88/173/4 92/174/4 86/171/4
f 90/175/4 93/176/4 88/173/4
f 82/177/4 94/178/4 90/175/4
f 77/179/3 95/180/3 78/181/3
f 91/182/3 96/183/3 95/180/3
f 92/184/3 97/185/3 96/183/3
f 93/186/3 98/187/3 97/185/3
f 99/188/3 101/189/3 102/190/3
f 95/191/9 75/192/9 78/193/9
f 96/194/10 83/195/10 95/191/10
f 97/196/11 85/197/11 96/194/11
f 98/198/12 87/199/12 97/196/12
f 80/200/13 89/201/13 98/198/13
f 101/202/2 81/203/2 80/154/2
f 100/204/4 94/178/4 81/205/4
f 99/206/1 98/207/1 94/208/1
f 102/209/13 80/200/13 98/198/13
f 2/1/1 3/25/1 4/2/1
f 6/4/2 7/27/2 8/5/2
f 4/7/3 9/16/3 10/8/3
f 3/10/4 11/19/4 9/11/4
f 2/13/5 13/22/5 14/14/5
f 9/16/3 15/36/3 16/17/3
f 18/18/4 19/31/4 11/19/4
f 16/21/5 20/34/5 13/22/5
f 12/24/1 21/210/1 3/25/1
f 22/26/2 23/211/2 8/5/2
f 21/28/4 17/20/4 11/19/4
f 1/29/5 10/23/5 13/22/5
f 6/30/4 15/40/4 19/31/4
f 23/33/5 24/212/5 20/34/5
f 15/36/3 6/213/3 5/37/3
f 22/38/4 7/32/4 19/31/4
f 5/39/5 8/35/5 20/34/5
f 9/11/4 11/19/4 19/31/4
f 26/41/5 27/214/5 28/42/5
f 13/44/6 27/215/6 26/45/6
f 13/47/7 20/216/7 28/48/7
f 24/50/8 25/217/8 28/51/8
f 30/53/1 31/73/1 32/54/1
f 34/56/2 35/74/2 36/57/2
f 37/59/7 38/66/7 30/60/7
f 38/62/4 39/69/4 31/63/4
f 14/14/5 40/70/5 32/65/5
f 38/66/7 37/59/7 41/67/7
f 39/69/4 43/76/4 18/18/4
f 40/70/5 44/79/5 41/71/5
f 31/73/1 21/210/1 12/24/1
f 34/56/2 23/211/2 22/26/2
f 39/69/4 17/20/4 21/28/4
f 40/70/5 37/72/5 29/75/5
f 43/76/4 42/84/4 36/77/4
f 44/79/5 24/212/5 23/33/5
f 42/68/7 41/67/7 33/81/7
f 43/76/4 35/78/4 22/38/4
f 44/79/5 34/80/5 33/83/5
f 43/76/4 39/69/4 38/62/4
f 45/85/5 46/218/5 26/41/5
f 26/45/6 46/219/6 40/86/6
f 40/87/3 46/219/3 45/88/3
f 45/90/8 25/217/8 24/50/8
f 48/92/1 49/220/1 50/93/1
f 52/95/2 53/143/2 54/96/2
f 50/98/3 55/101/3 56/99/3
f 55/101/3 57/103/3 58/102/3
f 57/103/3 59/105/3 60/104/3
f 59/105/3 61/107/3 62/106/3
f 61/107/3 52/221/3 51/108/3
f 49/109/4 63/112/4 55/110/4
f 63/112/4 64/114/4 57/113/4
f 64/114/4 65/116/4 59/115/4
f 65/116/4 66/118/4 61/117/4
f 66/118/4 53/146/4 52/119/4
f 49/120/7 48/222/7 67/121/7
f 63/122/7 67/121/7 68/123/7
f 64/124/7 68/123/7 69/125/7
f 65/126/7 69/125/7 70/127/7
f 71/129/7 72/223/7 73/130/7
f 47/132/9 56/135/9 67/133/9
f 56/135/10 58/137/10 68/136/10
f 58/137/11 60/139/11 69/138/11
f 60/139/12 62/141/12 70/140/12
f 62/141/13 51/224/13 54/142/13
f 53/143/2 74/225/2 73/144/2
f 66/118/4 71/226/4 74/145/4
f 70/147/1 72/227/1 71/148/1
f 54/142/13 73/228/13 72/150/13
f 76/151/1 77/229/1 78/152/1
f 80/154/2 81/203/2 82/155/2
f 83/157/7 84/161/7 76/158/7
f 85/160/7 86/163/7 84/161/7
f 87/162/7 88/165/7 86/163/7
f 89/164/7 90/167/7 88/165/7
f 79/166/7 82/230/7 90/167/7
f 84/168/4 91/172/4 77/169/4
f 86/171/4 92/174/4 91/172/4
f 88/173/4 93/176/4 92/174/4
f 90/175/4 94/178/4 93/176/4
f 82/177/4 81/205/4 94/178/4
f 77/179/3 91/182/3 95/180/3
f 91/182/3 92/184/3 96/183/3
f 92/184/3 93/186/3 97/185/3
f 93/186/3 94/231/3 98/187/3
f 99/188/3 100/232/3 101/189/3
f 95/191/9 83/195/9 75/192/9
f 96/194/10 85/197/10 83/195/10
f 97/196/11 87/199/11 85/197/11
f 98/198/12 89/201/12 87/199/12
f 80/200/13 79/233/13 89/201/13
f 101/202/2 100/234/2 81/203/2
f 100/204/4 99/235/4 94/178/4
f 99/206/1 102/236/1 98/207/1
f 102/209/13 101/237/13 80/200/13
